<?xml version="1.0" encoding="utf-8"?>
<!-- Generator: Adobe Illustrator 24.0.2, SVG Export Plug-In . SVG Version: 6.00 Build 0)  -->
<svg version="1.1" id="Capa_1" xmlns="http://www.w3.org/2000/svg" xmlns:xlink="http://www.w3.org/1999/xlink" x="0px" y="0px"
	 viewBox="0 0 792 612" style="enable-background:new 0 0 792 612;" xml:space="preserve">
<style type="text/css">
	.st0{fill:#DB9228;}
	.st1{fill:#002635;}
	.st2{fill:#1E345D;}
	.st3{fill:#FFD142;}
	.st4{fill:#FFFFFF;}
</style>
<polyline class="st0" points="374.2,648.9 393.7,648.9 393.7,665.6 "/>
<polyline class="st1" points="398.1,665.6 398.1,648.9 417.5,648.9 417.5,665.6 "/>
<path class="st2" d="M625.9,593.4H238c-50.3,0-91-40.7-91-91v-388c0-50.3,40.7-91,91-91h388c50.3,0,91,40.7,91,91v388
	C716.9,552.6,676.2,593.4,625.9,593.4z"/>
<g>
	<circle class="st3" cx="261.2" cy="193.2" r="54.7"/>
	<path class="st4" d="M459.3,478.3H391c-11.5,0-20.8-9.3-20.8-20.8V235.6c0-11.5,9.3-20.8,20.8-20.8h17.4
		c39.6,0,71.7,32.1,71.7,71.7v171C480.1,469,470.8,478.3,459.3,478.3z"/>
	<path class="st4" d="M295.4,478.3h-68.3c-11.5,0-20.8-9.3-20.8-20.8V299c0-11.5,9.3-20.8,20.8-20.8h17.4
		c39.6,0,71.7,32.1,71.7,71.7v107.6C316.2,469,306.9,478.3,295.4,478.3z"/>
	<path class="st4" d="M636.8,478.3h-68.3c-11.5,0-20.8-9.3-20.8-20.8V159.3c0-11.5,9.3-20.8,20.8-20.8h17.4
		c39.6,0,71.7,32.1,71.7,71.7v247.3C657.6,469,648.3,478.3,636.8,478.3z"/>
</g>
</svg>
