<?xml version="1.0" encoding="utf-8"?>
<svg viewBox="0 0 500 500" xmlns="http://www.w3.org/2000/svg">
  <defs/>
  <path class="st2" d="M 420.088 500 L 79.825 500 C 35.702 500 0 464.298 0 420.175 L 0 79.825 C 0 35.702 35.702 0 79.825 0 L 420.175 0 C 464.298 0 500 35.702 500 79.825 L 500 420.175 C 499.912 464.21 464.21 500 420.088 500 Z" style="fill: rgb(255, 255, 255);"/>
  <g transform="matrix(0.877193, 0, 0, 0.877193, -128.947266, -20.527174)" style="">
    <circle class="st3" cx="261.2" cy="193.2" r="54.7" style="fill: rgb(0, 0, 0);"/>
    <path class="st4" d="M459.3,478.3H391c-11.5,0-20.8-9.3-20.8-20.8V235.6c0-11.5,9.3-20.8,20.8-20.8h17.4&#10;&#9;&#9;c39.6,0,71.7,32.1,71.7,71.7v171C480.1,469,470.8,478.3,459.3,478.3z" style="fill: rgb(0, 0, 0);"/>
    <path class="st4" d="M295.4,478.3h-68.3c-11.5,0-20.8-9.3-20.8-20.8V299c0-11.5,9.3-20.8,20.8-20.8h17.4&#10;&#9;&#9;c39.6,0,71.7,32.1,71.7,71.7v107.6C316.2,469,306.9,478.3,295.4,478.3z" style="fill: rgb(0, 0, 0);"/>
    <path class="st4" d="M636.8,478.3h-68.3c-11.5,0-20.8-9.3-20.8-20.8V159.3c0-11.5,9.3-20.8,20.8-20.8h17.4&#10;&#9;&#9;c39.6,0,71.7,32.1,71.7,71.7v247.3C657.6,469,648.3,478.3,636.8,478.3z" style="fill: rgb(0, 0, 0);"/>
  </g>
</svg>